<svg width="24" height="24" viewBox="0 0 24 24" fill="none" xmlns="http://www.w3.org/2000/svg">
  <path
    fill="#25D366"
    d="M12.002 2C6.476 2 2 6.477 2 12.004c0 1.776.459 3.421 1.264 4.872L2 22l5.273-1.217a9.93 9.93 0 0 0 4.729 1.215c5.526 0 10.003-4.477 10.003-10.005C21.998 6.477 17.528 2 12.002 2zm0 1.8c4.516 0 8.203 3.687 8.203 8.204 0 4.517-3.687 8.205-8.203 8.205-1.574 0-3.051-.456-4.335-1.251l-.31-.19-3.131.722.7-3.237-.202-.332A8.158 8.158 0 0 1 3.8 12.004c0-4.517 3.687-8.204 8.203-8.204zm4.605 4.69a.863.863 0 0 0-.622-.294c-.154 0-.319-.015-.49-.015-.328 0-.67.095-.93.358-.271.272-.902.884-.902 2.156 0 1.272.924 2.503 1.053 2.676.129.173 1.805 2.875 4.457 3.914 2.202.87 2.649.697 3.125.653.476-.043 1.542-.628 1.763-1.234.22-.606.22-1.125.154-1.234-.065-.108-.241-.173-.507-.302-.265-.129-1.566-.77-1.808-.857-.241-.087-.417-.13-.594.13-.176.26-.681.857-.835 1.03-.153.174-.307.195-.571.065-.265-.129-1.118-.412-2.13-1.311-.788-.702-1.32-1.566-1.475-1.831-.154-.265-.017-.408.112-.537.115-.115.26-.3.39-.45.129-.152.172-.26.259-.433.086-.173.043-.324-.022-.453-.065-.13-.57-1.37-.781-1.868-.206-.497-.418-.43-.57-.438z"
  />
</svg>

